<?xml version="1.0" standalone="no"?>
<!DOCTYPE svg PUBLIC "-//W3C//DTD SVG 20010904//EN"
 "http://www.w3.org/TR/2001/REC-SVG-20010904/DTD/svg10.dtd">
<svg version="1.0" xmlns="http://www.w3.org/2000/svg"
 width="600.000000pt" height="210.000000pt" viewBox="0 0 600.000000 210.000000"
 preserveAspectRatio="xMidYMid meet">
<metadata>
Created by potrace 1.15, written by Peter Selinger 2001-2017
</metadata>
<g transform="translate(0.000000,210.000000) scale(0.100000,-0.100000)"
fill="#000000" stroke="none">
<path d="M0 2054 c0 -24 4 -44 9 -44 5 0 17 -14 25 -32 17 -32 10 -47 -21 -48
-10 0 -13 -25 -13 -90 0 -79 2 -91 20 -102 24 -15 29 -78 6 -78 -8 0 -17 10
-19 23 -2 12 -4 -48 -4 -133 -1 -85 1 -147 4 -137 10 38 28 19 58 -63 15 -41
25 -55 40 -56 48 -2 48 -3 34 -20 -11 -14 -11 -18 4 -29 16 -12 16 -13 -3 -18
-13 -3 -20 0 -20 9 0 14 -20 21 -20 7 0 -5 -4 -15 -10 -23 -7 -12 -12 -12 -29
4 -11 10 -28 16 -38 14 -15 -3 -18 -15 -21 -83 -4 -103 8 -127 58 -119 42 7
58 -7 67 -59 4 -29 2 -35 -16 -40 -16 -4 -22 0 -27 19 -6 24 -24 34 -24 13 0
-7 -10 -9 -25 -7 -17 4 -26 0 -29 -11 -9 -28 -3 -461 5 -462 20 -3 24 -5 34
-11 6 -4 17 -3 25 3 8 5 25 9 38 9 28 0 47 -42 32 -71 -13 -24 -65 -26 -78 -3
-6 11 -11 13 -16 5 -4 -6 -15 -11 -26 -11 -14 0 -18 -7 -17 -37 1 -25 6 -37
14 -35 17 3 16 -15 -1 -21 -15 -6 -20 -147 -5 -147 5 0 9 7 9 15 0 8 4 15 9
15 5 0 16 3 24 6 12 4 14 0 10 -17 -5 -18 -3 -21 11 -16 10 4 20 7 22 7 2 0 4
9 4 21 0 22 -16 43 -39 50 -9 3 -15 23 -17 50 -3 32 -1 39 6 24 l9 -20 0 20
c1 14 4 16 9 7 5 -7 24 -12 43 -12 19 1 45 0 59 -2 20 -2 24 1 22 16 -2 11 1
16 10 14 14 -5 12 -41 -3 -46 -14 -5 -11 -22 4 -22 17 0 38 -36 31 -53 -3 -9
3 -16 15 -20 29 -7 26 -25 -4 -33 -18 -4 -25 -13 -25 -30 0 -13 -4 -24 -10
-24 -5 0 -10 7 -10 16 0 8 -5 12 -10 9 -6 -3 -10 -14 -10 -24 0 -10 -10 -26
-23 -35 l-22 -17 25 5 c14 2 34 7 46 11 13 4 27 1 37 -9 8 -9 23 -13 31 -10
18 7 23 -21 6 -31 -6 -3 -10 -14 -10 -23 0 -13 2 -14 9 -3 7 11 10 11 15 0 3
-8 3 -3 0 10 -4 17 -2 22 7 19 8 -3 13 -12 12 -19 -5 -25 34 -20 40 4 2 12 7
29 10 37 4 9 -6 24 -25 40 l-31 24 7 -28 c5 -21 3 -27 -6 -24 -18 6 -21 29 -8
64 10 26 13 27 21 11 6 -9 14 -15 20 -12 14 9 11 45 -4 45 -7 0 -18 9 -25 20
-7 11 -21 20 -32 20 -12 0 -24 9 -29 23 -10 26 -4 40 15 33 7 -3 20 4 28 15
13 20 14 20 19 2 3 -10 5 -3 6 15 1 26 -4 35 -19 39 -11 3 -17 9 -14 15 3 5
14 6 24 3 11 -4 19 0 22 12 4 16 -2 18 -51 16 -56 -2 -57 -2 -73 35 -15 34
-15 38 0 55 11 13 26 17 46 14 25 -3 27 -2 12 9 -11 8 -13 14 -7 19 14 8 31
-2 31 -20 0 -17 16 -14 68 13 52 27 62 27 62 3 0 -10 7 -22 15 -25 11 -4 15 0
13 12 -2 12 4 17 19 17 36 1 49 21 19 29 -16 4 -23 11 -20 20 3 8 0 17 -7 22
-15 9 -87 25 -109 24 -77 -3 -80 1 -80 98 0 46 -4 72 -11 72 -6 0 -9 -7 -6
-15 4 -8 2 -17 -3 -20 -6 -4 -7 -17 -4 -31 5 -19 2 -24 -13 -24 -19 0 -43 18
-43 32 0 4 7 8 15 8 8 0 15 8 15 18 0 24 39 65 56 58 7 -3 16 -1 19 4 8 13 42
13 51 -1 3 -6 1 -16 -5 -22 -8 -8 -11 -6 -11 6 0 9 -4 17 -9 17 -5 0 -3 -21 5
-47 8 -26 10 -49 6 -52 -5 -3 -5 -17 -2 -31 6 -24 7 -23 15 10 5 19 8 38 7 42
-1 5 1 7 6 7 4 -1 10 0 15 1 11 4 26 7 36 9 5 0 12 14 16 31 4 16 13 30 21 30
8 0 20 12 26 26 10 21 9 27 -3 36 -11 8 -11 9 4 4 11 -3 17 0 17 9 0 8 9 19
21 25 17 10 24 7 44 -14 15 -16 26 -22 30 -15 4 6 13 8 21 5 14 -5 27 9 31 35
2 12 -4 15 -23 11 -19 -3 -22 -7 -12 -13 9 -6 4 -9 -14 -9 -16 0 -28 5 -28 11
0 5 -4 8 -9 5 -13 -8 -44 31 -35 45 5 9 2 10 -9 6 -10 -3 -17 -3 -17 1 0 4
-20 14 -45 21 -67 20 -60 61 11 61 19 0 24 5 23 23 -1 16 -2 18 -6 5 -5 -22
-33 -24 -33 -3 0 20 -19 19 -27 -1 -4 -11 -8 -12 -13 -4 -8 13 10 60 23 60 4
0 7 5 7 10 0 6 -7 10 -15 10 -8 0 -15 -5 -15 -11 0 -5 -5 -7 -12 -3 -8 5 -9 2
-5 -10 6 -14 3 -17 -9 -12 -12 5 -14 1 -8 -17 3 -12 11 -27 16 -34 5 -7 5 -13
-1 -17 -5 -3 -11 0 -14 6 -2 7 -7 10 -11 7 -3 -3 -1 -31 5 -62 10 -58 6 -82
-12 -71 -6 3 -9 -5 -7 -21 2 -20 -2 -28 -14 -30 -21 -4 -23 6 -7 22 9 9 8 18
-5 37 -9 14 -16 34 -16 46 0 11 -4 20 -10 20 -5 0 -10 -9 -10 -19 0 -26 -35
-49 -65 -43 -27 5 -39 17 -49 48 -6 19 -1 23 40 33 33 9 44 16 40 26 -3 10 1
15 13 15 14 0 18 -5 14 -20 -4 -15 0 -20 17 -20 18 0 20 4 14 23 -3 12 -13 26
-20 30 -8 4 -14 13 -14 19 0 6 -8 17 -18 25 -9 8 -11 11 -3 7 7 -3 17 -1 21 7
10 16 -6 49 -24 49 -7 0 -18 12 -25 26 -9 21 -9 30 1 43 21 27 27 28 89 26 34
-1 59 2 59 7 0 6 14 8 30 6 17 -3 33 -1 36 4 9 14 42 9 60 -9 13 -13 19 -14
22 -5 6 18 29 15 37 -5 6 -16 8 -15 19 6 8 13 11 33 8 44 -4 16 -2 19 11 14
13 -5 17 -1 17 18 0 14 -7 25 -17 28 -17 4 -17 5 0 6 10 1 17 9 17 21 0 11 7
20 15 20 9 0 12 6 8 16 -3 9 8 2 25 -15 34 -33 40 -43 19 -35 -15 5 -19 -16
-11 -53 6 -32 21 -29 21 5 0 15 3 34 7 43 5 12 0 24 -15 38 -12 11 -19 24 -15
28 4 4 12 0 17 -10 6 -9 14 -17 18 -17 13 0 21 27 15 45 -5 12 -10 12 -27 3
-16 -8 -22 -8 -25 1 -3 9 -7 9 -18 0 -11 -9 -16 -6 -23 12 -11 30 -6 36 14 19
9 -7 19 -10 22 -6 4 4 1 11 -7 16 -12 8 -10 10 8 10 13 0 20 -4 17 -10 -3 -5
-1 -10 4 -10 14 0 14 6 1 31 -10 17 -7 19 26 19 28 0 35 3 30 15 -3 9 0 15 10
15 8 0 12 -4 9 -10 -4 -6 7 -10 27 -9 18 1 26 3 17 6 -10 2 -20 19 -23 38 -7
33 -7 33 -38 23 -25 -9 -37 -8 -65 7 -27 15 -36 16 -42 6 -6 -9 -11 -8 -21 4
-10 12 -16 13 -27 3 -9 -7 -42 -14 -75 -15 -32 -2 -67 -7 -78 -13 -24 -13 -26
-13 -45 6 -12 13 -19 14 -28 5 -19 -19 -55 -13 -62 10 -8 25 10 47 45 54 13 2
26 8 29 13 12 17 40 20 51 7 9 -11 17 -12 30 -5 28 15 61 12 82 -7 11 -9 18
-11 18 -5 0 7 7 12 15 12 8 0 23 8 34 19 18 18 19 18 19 -6 0 -36 11 -41 32
-13 17 23 20 23 58 11 42 -14 62 -9 62 14 0 8 6 12 14 9 16 -6 46 42 46 73 0
15 2 16 11 3 7 -11 8 -5 3 23 -7 40 1 46 37 27 25 -14 24 -30 -1 -30 -11 0
-20 -4 -20 -10 0 -5 6 -9 13 -7 19 3 9 -54 -14 -79 -30 -32 -25 -59 12 -61 23
-2 30 1 25 12 -3 8 -1 17 5 21 6 3 8 12 5 19 -2 7 2 16 10 19 8 3 14 12 14 21
0 8 5 15 10 15 6 0 10 9 10 21 0 15 -5 19 -18 15 -16 -5 -18 -1 -15 34 3 35 0
40 -17 40 -11 0 -23 7 -26 15 -6 14 -8 13 -19 -1 -7 -11 -17 -14 -25 -9 -17
11 -80 14 -86 4 -5 -8 -37 -5 -53 6 -5 3 -12 1 -16 -5 -9 -15 -55 -12 -61 4
-5 14 -45 15 -74 3 -8 -4 -28 -6 -44 -4 -26 2 -31 -2 -37 -31 -4 -18 -10 -36
-13 -40 -10 -9 -26 19 -26 44 0 12 -12 29 -26 39 -25 16 -28 16 -36 1 -13 -23
-23 -20 -36 9 -23 49 -18 52 66 49 104 -5 98 -6 172 2 99 9 154 6 194 -11 11
-5 31 -4 47 2 26 10 31 8 49 -15 19 -24 21 -24 26 -6 5 18 54 50 54 34 0 -4 9
-10 19 -13 15 -4 20 2 25 34 9 58 36 50 56 -18 12 -39 30 -59 30 -32 0 5 5 7
10 4 6 -3 10 -4 10 -1 0 2 3 12 7 22 4 12 3 15 -5 10 -8 -5 -12 0 -12 13 0 11
4 22 10 26 11 7 2 35 -12 35 -5 0 -6 -9 -3 -20 3 -11 2 -20 -3 -20 -5 0 -12 9
-15 19 -4 18 -14 20 -106 20 -79 0 -101 -2 -101 -13 0 -23 -28 -27 -43 -6 -12
18 -32 19 -405 18 l-392 0 0 -44z m101 -1286 c11 -39 13 -41 19 -18 l6 25 12
-22 c16 -28 15 -33 -3 -33 -20 0 -19 -12 3 -36 9 -10 17 -26 17 -34 0 -23 -27
-40 -47 -29 -28 15 -48 10 -48 -11 0 -13 -7 -20 -20 -20 -19 0 -20 5 -15 48
14 123 27 172 46 172 13 0 22 -12 30 -42z"/>
<path d="M1330 2092 c-39 -2 -61 -9 -77 -24 -13 -12 -23 -17 -23 -11 0 6 6 14
13 16 6 3 2 6 -10 6 -12 1 -27 -7 -32 -16 -9 -16 -10 -15 -11 7 l-1 25 -20
-27 c-11 -15 -26 -25 -34 -22 -7 3 -18 -3 -24 -14 -8 -16 -7 -21 6 -26 9 -4
23 0 32 7 23 20 51 28 64 20 7 -4 15 -8 20 -9 4 -1 8 -2 10 -3 10 -9 47 -9 47
-1 0 17 90 12 96 -5 6 -15 34 -21 34 -7 0 4 16 6 36 4 26 -3 35 -1 30 7 -4 6
-3 11 3 11 17 0 22 -18 6 -24 -8 -3 -15 -11 -15 -18 0 -6 12 -1 28 13 15 14
40 26 57 28 16 2 38 9 49 17 16 11 21 11 30 -1 11 -14 99 -27 171 -25 41 1 57
13 48 37 -3 7 0 13 6 13 6 0 11 -7 11 -15 0 -26 28 -16 38 14 8 22 8 29 -1 26
-7 -3 -28 -6 -47 -8 -19 -3 -42 -7 -50 -10 -42 -15 -60 -15 -58 0 2 11 -7 16
-27 19 -28 3 -29 2 -11 -12 19 -14 19 -14 -1 -14 -12 0 -23 6 -26 13 -4 12
-220 17 -367 9z"/>
<path d="M2271 2091 c-27 -7 -34 -29 -17 -52 14 -19 51 -34 40 -17 -5 8 -2 9
9 5 12 -4 17 -1 17 10 0 13 3 13 15 3 12 -10 13 -16 4 -27 -19 -22 -4 -25 19
-3 12 11 26 20 32 20 5 0 10 8 11 18 0 14 2 14 8 -3 l8 -20 5 20 c5 18 6 18 7
-2 1 -25 16 -31 24 -10 3 7 6 5 6 -6 1 -19 25 -17 85 6 25 9 31 8 47 -12 11
-13 20 -19 20 -15 1 5 3 28 4 50 l3 41 -161 0 c-89 0 -173 -3 -186 -6z"/>
<path d="M5865 2083 c-18 -17 -19 -33 -4 -33 5 0 8 -4 5 -9 -3 -5 -15 -7 -26
-4 -11 3 -20 0 -20 -6 0 -5 7 -8 15 -5 8 4 15 1 15 -5 0 -6 5 -11 11 -11 5 0
7 5 4 10 -3 6 -1 10 6 10 6 0 9 -8 6 -20 -3 -12 0 -20 8 -20 13 0 27 -46 16
-53 -3 -2 0 -2 6 -1 15 4 45 -35 37 -48 -3 -4 -1 -8 4 -8 5 0 13 -8 16 -17 3
-10 13 -29 21 -43 13 -23 15 -11 15 127 l0 153 -60 -1 c-39 -1 -66 -6 -75 -16z"/>
<path d="M3130 1950 c-86 -6 -102 -13 -188 -86 -35 -30 -71 -60 -80 -66 -10
-7 -25 -25 -34 -40 -10 -15 -29 -38 -43 -52 -32 -32 -62 -109 -64 -161 0 -22
-5 -65 -10 -95 -5 -30 -7 -72 -5 -94 8 -80 15 -130 19 -134 7 -7 22 37 35 103
14 70 49 108 167 185 76 50 139 68 174 49 12 -6 30 -9 40 -6 11 3 16 1 13 -5
-4 -6 7 -7 30 -4 20 3 36 2 36 -3 0 -5 9 -11 20 -14 13 -3 27 -22 37 -47 10
-24 21 -39 29 -36 7 3 10 -2 7 -15 -4 -12 1 -21 13 -26 19 -8 32 -53 15 -53
-5 0 -21 7 -37 15 -31 16 -88 13 -172 -8 -52 -14 -52 -14 -46 7 5 16 4 18 -6
9 -7 -6 -19 -9 -26 -6 -8 3 -14 0 -14 -6 0 -6 4 -11 9 -11 14 0 20 -39 7 -43
-17 -7 -4 -15 36 -22 34 -6 36 -5 31 14 -4 14 0 23 13 27 11 4 35 14 54 22 58
25 120 19 120 -13 0 -8 9 -19 20 -25 11 -6 20 -15 20 -21 0 -14 -31 -24 -39
-12 -8 13 -72 31 -88 26 -18 -6 -16 -23 5 -39 14 -12 15 -13 1 -8 -10 3 -20 1
-23 -4 -3 -6 12 -13 34 -17 22 -4 40 -11 40 -16 0 -5 5 -9 11 -9 5 0 8 3 6 8
-3 4 11 8 31 9 20 1 39 -3 43 -9 10 -16 -30 -51 -52 -45 -10 3 -19 2 -19 -2 0
-11 -54 -39 -67 -34 -7 3 -13 0 -13 -5 0 -6 -9 -13 -19 -17 -18 -5 -20 -15
-19 -88 0 -47 -7 -108 -16 -141 -17 -64 -36 -95 -36 -60 0 11 5 25 10 30 8 8
8 25 1 56 -8 32 -7 55 0 78 22 63 1 172 -46 234 -21 27 -38 10 -19 -19 24 -37
12 -55 -30 -48 -44 7 -85 -17 -61 -37 8 -7 15 -19 15 -27 0 -7 10 -17 22 -22
l23 -8 -23 -7 c-31 -10 -28 -28 9 -50 l32 -19 -28 -14 c-21 -12 -25 -17 -14
-24 19 -11 -9 -22 -48 -17 -23 2 -29 8 -31 33 -2 17 -8 35 -12 41 -5 5 -7 20
-3 32 8 30 -24 30 -37 0 -8 -20 -9 -19 -9 12 -1 19 8 50 19 68 13 21 18 42 14
54 -3 12 1 27 12 39 35 39 2 31 -39 -9 l-42 -42 -3 -105 c-4 -108 6 -134 28
-72 l11 32 14 -38 c7 -21 15 -39 17 -40 1 -1 13 -8 25 -14 13 -7 32 -13 43
-13 16 0 19 -5 14 -24 -4 -19 0 -27 23 -38 19 -9 37 -12 51 -7 24 9 35 -1 26
-25 -6 -15 -56 -43 -94 -53 -35 -9 -100 -10 -100 -2 0 5 -5 9 -11 9 -5 0 -7
-5 -3 -12 5 -8 2 -9 -9 -5 -10 4 -17 1 -17 -6 0 -29 -31 37 -37 79 -3 26 -19
69 -35 94 -21 33 -30 64 -35 114 -5 56 -10 70 -30 83 -13 9 -26 13 -30 9 -3
-3 -12 -1 -20 5 -10 9 -18 7 -32 -10 -10 -11 -26 -21 -35 -21 -9 0 -16 -4 -16
-10 0 -5 -7 -10 -15 -10 -8 0 -15 5 -15 10 0 18 -19 11 -49 -19 -36 -35 -119
-51 -157 -30 -26 14 -32 39 -10 39 8 0 22 14 30 32 20 39 20 38 -4 38 -11 0
-29 5 -39 12 -15 9 -25 9 -46 0 -14 -7 -48 -12 -75 -12 -38 0 -48 -3 -44 -14
3 -7 -5 -26 -18 -41 -19 -22 -35 -28 -83 -34 -33 -3 -60 -11 -63 -18 -2 -7 5
-13 15 -14 10 0 34 -1 53 -2 28 -2 35 -6 35 -22 0 -16 -14 -25 -62 -41 l-63
-21 24 -22 c22 -20 27 -21 66 -11 24 6 50 20 59 31 9 12 30 21 50 22 31 2 35
-1 43 -31 10 -37 -3 -57 -44 -67 -18 -5 -27 -2 -31 9 -4 9 -12 14 -19 11 -7
-2 -32 -9 -55 -15 -52 -13 -55 -32 -8 -49 19 -7 35 -15 35 -19 0 -10 -71 -67
-92 -75 -10 -3 -18 -13 -18 -22 0 -8 -9 -15 -20 -15 -11 0 -20 -4 -20 -9 0 -5
-9 -13 -20 -16 -11 -3 -20 -12 -20 -20 0 -7 -9 -15 -21 -18 -12 -3 -18 -10
-14 -16 3 -6 -1 -11 -10 -11 -9 0 -13 -4 -10 -10 3 -5 1 -10 -5 -10 -7 0 -10
-7 -6 -15 3 -8 2 -14 -2 -14 -20 3 -32 -3 -32 -16 0 -18 -16 -20 -23 -2 -4 8
-6 6 -6 -4 -1 -15 -9 -18 -63 -21 -29 -2 -40 -18 -13 -18 18 0 20 -16 2 -23
-31 -12 0 -95 36 -97 4 0 7 -9 7 -20 0 -11 8 -29 18 -41 53 -66 75 -89 86 -89
7 0 27 -11 46 -25 19 -14 46 -25 61 -25 34 0 94 25 135 56 17 14 38 23 45 22
33 -7 53 -136 32 -210 l-11 -38 1299 0 c1149 0 1298 2 1294 15 -16 51 -16 50
-25 35 -8 -13 -10 -12 -10 2 0 10 -17 28 -38 42 -55 34 -155 132 -148 144 3 6
-3 14 -15 17 -17 6 -19 9 -8 16 11 7 10 9 -5 9 -23 0 -84 62 -78 80 3 7 0 10
-6 7 -5 -4 -81 63 -168 148 -175 171 -170 167 -234 215 -25 19 -47 38 -48 42
-2 5 -7 6 -12 3 -4 -3 -24 6 -43 19 -20 14 -77 45 -129 71 -127 63 -146 78
-131 104 23 38 49 126 47 162 -1 20 -11 66 -23 102 -25 79 -26 112 -5 163 20
46 23 179 6 196 -7 7 -12 18 -12 25 0 7 -15 32 -32 56 -18 24 -37 52 -43 61
-5 9 -28 23 -50 30 -33 12 -47 25 -80 81 -22 38 -52 76 -65 86 -28 20 -139 28
-270 19z"/>
<path d="M5843 1583 c-37 -39 -43 -73 -14 -73 10 0 22 -8 25 -17 5 -12 9 -14
18 -5 7 7 20 12 30 12 21 0 24 16 6 23 -10 4 -9 8 2 16 22 16 27 14 34 -14 8
-33 -2 -73 -25 -96 -21 -21 -25 -44 -9 -54 6 -3 7 -17 4 -31 -4 -17 -1 -26 10
-30 23 -9 20 -41 -5 -47 -12 -3 -32 -2 -45 3 -17 7 -24 6 -24 -3 0 -6 -5 -4
-11 6 -5 9 -18 17 -28 17 -15 0 -20 -9 -23 -40 -4 -46 -1 -48 36 -19 24 19 26
19 27 2 0 -10 2 -30 4 -45 2 -16 -1 -28 -6 -28 -5 0 -9 5 -9 10 0 6 -7 10 -15
10 -18 0 -20 -16 -2 -27 37 -24 46 -81 21 -131 -8 -18 -13 -36 -9 -42 3 -5 2
-10 -3 -10 -5 0 -8 -11 -7 -25 2 -16 -2 -25 -11 -25 -8 0 -14 -5 -14 -11 0 -5
-4 -8 -9 -4 -5 3 -12 1 -15 -4 -9 -13 29 -24 94 -27 78 -3 77 -2 94 -19 11
-11 14 -29 11 -62 -7 -62 -18 -72 -54 -50 -34 20 -91 19 -91 0 0 -18 -29 -16
-36 2 -4 8 -12 15 -20 15 -8 0 -11 6 -7 17 5 13 2 15 -11 10 -10 -4 -22 -7
-27 -7 -5 0 -9 -6 -9 -13 0 -18 -43 -37 -68 -30 -11 3 -29 0 -39 -6 -15 -9
-13 -10 15 -11 24 0 32 -5 32 -17 0 -16 2 -16 11 -3 9 12 10 11 6 -7 -3 -13
-1 -23 4 -23 5 0 9 -5 9 -11 0 -5 -4 -7 -10 -4 -6 3 -7 -1 -4 -9 3 -9 16 -16
29 -16 34 0 38 -41 8 -74 -29 -32 -29 -40 1 -54 29 -13 48 -11 70 7 20 17 26
12 32 -29 5 -26 2 -31 -13 -28 -14 2 -19 -5 -21 -34 -3 -40 -8 -44 -31 -29
-20 13 -51 -5 -51 -29 0 -10 4 -21 9 -24 4 -3 5 -25 1 -48 -5 -24 -8 -45 -8
-48 0 -2 -5 -6 -10 -8 -18 -6 -21 27 -7 67 11 33 11 42 0 51 -16 13 -64 16
-87 6 -13 -6 -18 -4 -18 8 0 9 -7 16 -16 16 -10 0 -14 6 -10 15 4 11 -1 15
-19 15 -28 0 -27 -1 -16 57 4 23 5 42 2 41 -16 -3 -39 15 -34 28 3 9 -2 14
-15 14 -12 0 -23 4 -27 10 -3 5 -13 7 -23 4 -14 -5 -14 -3 2 10 11 9 14 16 8
16 -7 0 -21 -9 -32 -20 -24 -24 -30 -25 -30 -4 0 8 -4 12 -10 9 -14 -9 -12
-38 4 -71 16 -29 11 -48 -20 -79 -13 -12 -14 -19 -5 -28 6 -6 11 -20 11 -32 0
-32 30 -109 46 -118 19 -11 18 -34 -3 -46 -17 -10 -17 -10 0 -11 9 0 17 -4 17
-9 0 -16 -20 -23 -33 -13 -7 5 -23 5 -37 1 -23 -6 -23 -7 -3 -8 22 -1 40 -32
28 -51 -10 -17 17 -11 30 6 14 20 119 31 112 11 -2 -6 -13 -13 -24 -15 -16 -2
-20 -8 -15 -25 5 -20 4 -20 -11 -8 -14 11 -17 11 -21 0 -8 -25 -1 -60 14 -69
8 -6 132 -10 283 -10 l267 0 0 805 c0 582 -3 805 -11 805 -6 0 -9 -6 -6 -14 9
-22 -52 -17 -75 6 -24 24 -27 23 -65 -19z m-270 -1287 c9 -7 17 -21 17 -30 0
-9 6 -16 14 -16 15 0 26 -30 26 -74 0 -22 -3 -27 -11 -19 -6 6 -17 9 -25 6
-10 -4 -12 4 -7 32 5 30 3 37 -8 33 -9 -3 -13 -17 -11 -39 3 -49 9 -59 31 -59
27 0 39 -50 15 -67 -23 -16 -29 -16 -43 1 -7 8 -21 12 -33 9 -18 -5 -19 -4 -9
15 6 11 11 27 10 34 0 7 -4 3 -9 -9 -5 -13 -15 -23 -21 -23 -8 0 -8 4 1 15 6
8 9 23 5 36 -6 18 -12 20 -41 16 -38 -6 -50 5 -34 30 11 17 11 17 6 0 -4 -12
-2 -17 6 -14 7 2 12 10 11 16 -2 6 11 12 30 12 23 1 26 3 10 6 -26 5 -31 23
-7 23 8 0 12 5 9 10 -3 6 0 10 7 11 10 0 10 2 1 6 -7 2 -13 9 -13 14 0 4 6 6
14 3 8 -3 16 3 19 15 6 24 15 26 40 7z"/>
</g>
</svg>
